<svg width="22" height="20" viewBox="0 0 22 20" fill="none" xmlns="http://www.w3.org/2000/svg">
<path d="M6.9949 13.6472H6.99589C6.99672 13.6472 6.99755 13.647 6.99838 13.647H18.5303C18.8142 13.647 19.0638 13.4589 19.1418 13.1863L21.686 4.29226C21.7408 4.10052 21.7024 3.89438 21.5823 3.73523C21.4621 3.57608 21.2741 3.48244 21.0745 3.48244H5.52801L5.07333 1.43876C5.00857 1.14808 4.7505 0.941284 4.45235 0.941284H0.636051C0.284732 0.941284 0 1.22567 0 1.57657C0 1.92747 0.284732 2.21186 0.636051 2.21186H3.94219C4.02269 2.57401 6.11801 11.9918 6.2386 12.5336C5.56263 12.8271 5.0884 13.5003 5.0884 14.2823C5.0884 15.3332 5.94442 16.1882 6.99656 16.1882H18.5303C18.8816 16.1882 19.1663 15.9038 19.1663 15.5529C19.1663 15.202 18.8816 14.9176 18.5303 14.9176H6.99656C6.6459 14.9176 6.36051 14.6326 6.36051 14.2823C6.36051 13.9326 6.64491 13.648 6.9949 13.6472ZM20.2312 4.75301L18.0504 12.3765H7.50672L5.81059 4.75301H20.2312Z" fill="#956D84"/>
<path d="M6.3605 18.0941C6.3605 19.145 7.21652 20 8.26866 20C9.32079 20 10.1768 19.145 10.1768 18.0941C10.1768 17.0432 9.32079 16.1882 8.26866 16.1882C7.21652 16.1882 6.3605 17.0432 6.3605 18.0941ZM8.26866 17.4588C8.61931 17.4588 8.90471 17.7439 8.90471 18.0941C8.90471 18.4443 8.61931 18.7294 8.26866 18.7294C7.918 18.7294 7.6326 18.4443 7.6326 18.0941C7.6326 17.7439 7.918 17.4588 8.26866 17.4588Z" fill="#956D84"/>
<path d="M15.35 18.0941C15.35 19.145 16.206 20 17.2582 20C18.3103 20 19.1663 19.145 19.1663 18.0941C19.1663 17.0432 18.3103 16.1882 17.2582 16.1882C16.206 16.1882 15.35 17.0432 15.35 18.0941ZM17.2582 17.4588C17.6088 17.4588 17.8942 17.7439 17.8942 18.0941C17.8942 18.4443 17.6088 18.7294 17.2582 18.7294C16.9075 18.7294 16.6221 18.4443 16.6221 18.0941C16.6221 17.7439 16.9075 17.4588 17.2582 17.4588Z" fill="#956D84"/>
</svg>
