<svg width="24" height="24" viewBox="0 0 24 24" fill="none" xmlns="http://www.w3.org/2000/svg">
<g clip-path="url(#clip0_95_5787)">
<path d="M13.5702 23.2196H9.85338C9.23256 23.2196 8.72754 22.7146 8.72754 22.0938V13.7103H6.55907C5.93825 13.7103 5.43323 13.2051 5.43323 12.5845V8.99216C5.43323 8.37133 5.93825 7.86631 6.55907 7.86631H8.72754V6.0674C8.72754 4.28372 9.28763 2.76619 10.3471 1.67912C11.4113 0.587098 12.8985 0.0100098 14.6481 0.0100098L17.4827 0.0146137C18.1024 0.0156762 18.6066 0.520695 18.6066 1.14046V4.47585C18.6066 5.09668 18.1017 5.60169 17.4811 5.60169L15.5726 5.6024C14.9905 5.6024 14.8423 5.71909 14.8106 5.75486C14.7584 5.81418 14.6962 5.98187 14.6962 6.44493V7.86613H17.3376C17.5365 7.86613 17.7292 7.91518 17.8947 8.00762C18.2519 8.20718 18.4739 8.58453 18.4739 8.99233L18.4725 12.5847C18.4725 13.2051 17.9675 13.7101 17.3467 13.7101H14.6962V22.0938C14.6962 22.7146 14.191 23.2196 13.5702 23.2196ZM10.0882 21.859H13.3354V13.1012C13.3354 12.6867 13.6727 12.3495 14.0871 12.3495H17.1119L17.1131 9.22696H14.0869C13.6725 9.22696 13.3354 8.88981 13.3354 8.47527V6.44493C13.3354 5.91335 13.3894 5.30881 13.7907 4.85444C14.2755 4.30515 15.0396 4.24176 15.5722 4.24176L17.2459 4.24105V1.37491L14.647 1.37066C11.8354 1.37066 10.0882 3.17045 10.0882 6.0674V8.47527C10.0882 8.88963 9.75103 9.22696 9.33668 9.22696H6.79387V12.3495H9.33668C9.75103 12.3495 10.0882 12.6867 10.0882 13.1012V21.859ZM17.48 1.37526H17.4802H17.48Z" fill="white"/>
</g>
<defs>
<clipPath id="clip0_95_5787">
<rect width="23.1643" height="23.2096" fill="white" transform="translate(0.424072 0.0554199)"/>
</clipPath>
</defs>
</svg>
