<svg width="28" height="27" viewBox="0 0 28 27" fill="none" xmlns="http://www.w3.org/2000/svg">
<path d="M14.2938 0.435394C8.80717 0.435394 3.5971 -0.0429305 1.60706 4.96245C0.785051 7.02976 0.904424 9.7146 0.904424 13.559C0.904424 16.9324 0.794117 20.103 1.60706 22.154C3.59257 27.1624 8.84495 26.6825 14.2907 26.6825C19.5446 26.6825 24.9617 27.2186 26.9759 22.154C27.7995 20.066 27.6786 17.4211 27.6786 13.559C27.6786 8.43216 27.9672 5.12239 25.4301 2.63747C22.8614 0.119966 19.3875 0.435394 14.2877 0.435394H14.2938ZM13.9538 2.5552C24.108 2.5552 26.2839 1.84438 25.5586 18.9041C24.8333 24.5907 20.0547 24.8909 14.2938 24.8909C4.20307 24.8909 2.78447 23.8799 2.56438 13.559C2.31458 1.84438 5.97547 2.5552 13.9538 2.5552ZM21.441 4.97874C20.554 4.97874 19.8348 5.68364 19.8348 6.55292C19.8348 7.42219 20.554 8.1271 21.441 8.1271C22.328 8.1271 23.0472 7.42219 23.0472 6.55292C23.0472 5.68364 22.328 4.97874 21.441 4.97874ZM14.2938 6.81948C10.4965 6.81948 7.41853 9.83751 7.41853 13.559C7.41853 17.2804 10.4965 20.297 14.2938 20.297C18.091 20.297 21.1675 17.2804 21.1675 13.559C21.1675 9.83751 18.091 6.81948 14.2938 6.81948ZM14.2938 9.18444C20.1944 9.18444 20.2019 17.9335 14.2938 17.9335C8.39466 17.9335 8.38559 9.18444 14.2938 9.18444Z" fill="white"/>
</svg>
