<svg width="29" height="29" viewBox="0 0 29 29" fill="none" xmlns="http://www.w3.org/2000/svg">
<g clip-path="url(#clip0_95_5777)">
<path d="M17.3539 0.673584H12.1187C6.63539 0.673584 2.17432 5.13361 2.17432 10.6159V15.3318C2.17432 19.4145 4.68305 23.0836 8.4553 24.578V27.6352C8.4553 27.8425 8.57726 28.0299 8.76674 28.1136C8.83478 28.144 8.90701 28.1587 8.97872 28.1587C9.10591 28.1587 9.23205 28.1121 9.32993 28.0231L12.3652 25.2741H17.3539C22.8372 25.2741 27.2983 20.8141 27.2983 15.3318V10.6159C27.2983 5.13361 22.8372 0.673584 17.3539 0.673584ZM26.2514 15.3318C26.2514 20.2368 22.2604 24.2273 17.3539 24.2273H12.1632C12.0334 24.2273 11.9083 24.2754 11.812 24.3628L9.50213 26.4549V24.2152C9.50213 23.9933 9.36238 23.7955 9.15302 23.7222C5.60531 22.4676 3.22115 19.0957 3.22115 15.3318V10.6159C3.22115 5.71094 7.21271 1.72041 12.1187 1.72041H17.3539C22.2604 1.72041 26.2514 5.71094 26.2514 10.6159V15.3318Z" fill="white"/>
<path d="M21.6537 16.634L18.4368 14.5445C18.085 14.3158 17.6663 14.2383 17.2565 14.3231C16.8461 14.4095 16.4933 14.6518 16.2646 15.0052L16.1133 15.2375C14.721 14.7775 13.1859 14.1897 12.2668 11.5291L12.6473 11.1984C13.3005 10.6304 13.3691 9.637 12.8012 8.98273L10.2846 6.08772C10.0951 5.86946 9.7643 5.84695 9.54604 6.0359L7.96585 7.40935C6.57984 8.61425 7.22731 10.3965 7.44034 10.9822C7.44976 11.0084 7.46128 11.0335 7.47488 11.0581C7.52984 11.1565 8.84205 13.4982 10.9614 15.6568C13.089 17.8243 16.9304 19.8258 17.0482 19.8839C17.4868 20.1686 17.9804 20.3053 18.4687 20.3053C19.3261 20.3053 20.1667 19.885 20.6681 19.1145L21.8081 17.359C21.9651 17.1156 21.896 16.7916 21.6537 16.634ZM19.7898 18.544C19.3182 19.2705 18.3436 19.4767 17.5742 18.9805C17.536 18.9606 13.7198 16.9732 11.7083 14.924C9.82816 13.0088 8.57981 10.8812 8.4097 10.5844C7.99516 9.42188 8.06844 8.70742 8.65257 8.1997L9.83811 7.16962L12.0113 9.66945C12.2045 9.89138 12.182 10.2159 11.9611 10.408L11.3188 10.966C11.1623 11.102 11.1006 11.3172 11.1618 11.515C12.2568 15.0732 14.3861 15.772 15.9406 16.2823L16.1672 16.3571C16.3939 16.4336 16.642 16.3461 16.7718 16.1462L17.1429 15.5746C17.2193 15.4563 17.3366 15.3763 17.4726 15.3475C17.6093 15.3182 17.7485 15.3454 17.8668 15.4223L20.6451 17.2265L19.7898 18.544Z" fill="white"/>
<path d="M15.9312 9.17736C15.6527 9.09728 15.3633 9.25901 15.2842 9.53747C15.2052 9.8154 15.3664 10.1049 15.6444 10.1839C16.4242 10.4058 17.0455 11.0282 17.2654 11.8086C17.3303 12.0389 17.5402 12.1901 17.7689 12.1901C17.816 12.1901 17.8636 12.1839 17.9113 12.1708C18.1892 12.0923 18.3515 11.8033 18.2729 11.5249C17.9552 10.3974 17.0576 9.49769 15.9312 9.17736Z" fill="white"/>
<path d="M19.9144 12.3034C19.9615 12.3034 20.0091 12.2971 20.0568 12.2841C20.3352 12.2056 20.497 11.9161 20.4184 11.6382C19.8008 9.44872 18.0584 7.70261 15.8705 7.07974C15.5926 6.99966 15.3031 7.16244 15.2241 7.44038C15.145 7.71831 15.3062 8.00776 15.5842 8.0868C17.425 8.61021 18.8911 10.0805 19.4109 11.9224C19.4763 12.1527 19.6857 12.3034 19.9144 12.3034Z" fill="white"/>
<path d="M15.6449 4.64208C15.3664 4.562 15.077 4.72373 14.9979 5.00271C14.9189 5.28064 15.0801 5.57009 15.358 5.64913C18.4771 6.53632 20.9617 9.02673 21.8421 12.1479C21.907 12.3782 22.1169 12.5294 22.3456 12.5294C22.3928 12.5294 22.4404 12.5231 22.488 12.5101C22.7659 12.4315 22.9282 12.1421 22.8497 11.8642C21.8714 8.39549 19.1109 5.62872 15.6449 4.64208Z" fill="white"/>
</g>
<defs>
<clipPath id="clip0_95_5777">
<rect width="27.4851" height="27.4851" fill="white" transform="translate(0.994019 0.673584)"/>
</clipPath>
</defs>
</svg>
